<svg id="App_Store_1_" xmlns="http://www.w3.org/2000/svg" viewBox="0 0 281 71"><style>.st0{fill:#3cbe9b}.st1{fill:#fff}</style><path class="st0" d="M72 0C32.2 0 0 31.8 0 71h209c39.8 0 72-31.8 72-71H72z" id="Rectangle_10_copy_3"/><path class="st1" d="M99.7 50.4l7.3-16.2c.1-.1.2-.3.4-.3h.2c.2 0 .3.1.4.3l7.2 16.2c.1.3 0 .6-.4.6h-1c-.2 0-.4-.1-.4-.3l-1.8-4h-8.5l-1.8 4c0 .1-.2.3-.4.3h-1c-.2.1-.4-.2-.2-.6zm11.4-5c-1.2-2.6-2.3-5.3-3.5-7.9h-.2l-3.5 7.9h7.2zm6.8-10.7c0-.2.2-.5.5-.5h5.3c2.9 0 5.4 2.4 5.4 5.3 0 3-2.4 5.4-5.3 5.4h-4v5.6c0 .2-.2.5-.5.5h-.9c-.3 0-.5-.2-.5-.5V34.7zm5.6 8.5c2 0 3.6-1.6 3.6-3.7 0-1.9-1.7-3.4-3.6-3.4h-3.8v7.1h3.8zm8.7-8.5c0-.2.2-.5.5-.5h5.3c2.9 0 5.4 2.4 5.4 5.3 0 3-2.4 5.4-5.3 5.4h-4v5.6c0 .2-.2.5-.5.5h-.9c-.3 0-.5-.2-.5-.5V34.7zm5.6 8.5c2 0 3.6-1.6 3.6-3.7 0-1.9-1.7-3.4-3.6-3.4H134v7.1h3.8zm12.9 5.3c.1-.1.2-.3.4-.5.2-.3.5-.5.8-.2.2.1 1.9 1.8 4.1 1.8 1.9 0 3.2-1.2 3.2-2.6 0-1.7-1.4-2.6-4.2-3.8-2.6-1.2-4.2-2.2-4.2-5 0-1.6 1.3-4.3 5.1-4.3 2.4 0 4.1 1.2 4.1 1.2.1.1.4.4.1.8-.1.1-.2.3-.3.5-.2.3-.5.4-.8.2-.2-.1-1.7-1.1-3.1-1.1-2.5 0-3.3 1.6-3.3 2.6 0 1.6 1.2 2.5 3.2 3.4 3.2 1.3 5.3 2.5 5.3 5.3 0 2.5-2.4 4.3-5.2 4.3-2.8 0-4.7-1.7-5.1-1.9-.1 0-.4-.2-.1-.7zM167 35.9h-4.2c-.3 0-.5-.2-.5-.5v-.7c0-.2.2-.5.5-.5H173c.3 0 .5.2.5.5v.7c0 .2-.2.5-.5.5h-4.2v14.7c0 .2-.2.5-.5.5h-.9c-.2 0-.5-.2-.5-.5l.1-14.7zm16.2-1.9c4.8 0 8.6 3.9 8.6 8.7 0 4.8-3.8 8.6-8.6 8.6s-8.6-3.8-8.6-8.6c-.1-4.8 3.8-8.7 8.6-8.7zm0 15.6c3.8 0 7-3.1 7-6.9s-3.1-7-7-7c-3.8 0-6.9 3.2-6.9 7s3 6.9 6.9 6.9zm12.3-14.9c0-.2.2-.5.5-.5h6.2c2.9 0 5.2 2.3 5.2 5.1 0 2.2-1.5 4.1-3.6 4.9l3.3 6.1c.2.3 0 .7-.4.7h-1.2c-.2 0-.3-.1-.4-.2l-3.2-6.4h-4.6v6.1c0 .2-.2.5-.5.5h-.9c-.3 0-.5-.2-.5-.5V34.7zm6.5 8.2c1.8 0 3.5-1.5 3.5-3.5 0-1.8-1.6-3.4-3.5-3.4h-4.7v6.9h4.7zm9.3-8.2c0-.2.2-.5.5-.5h9.5c.3 0 .5.2.5.5v.7c0 .2-.2.5-.5.5h-8.1v5.9h6.9c.2 0 .5.2.5.5v.7c0 .3-.2.5-.5.5h-6.9v6.1h8.1c.3 0 .5.2.5.5v.7c0 .2-.2.5-.5.5h-9.5c-.3 0-.5-.2-.5-.5V34.7z" id="App_Store_2_"/><path class="st1" d="M100 19.6c0-.1.1-.2.2-.2h2.6c2.1 0 3.9 1.7 3.9 3.8 0 2.1-1.7 3.9-3.9 3.9h-2.6c-.1 0-.2-.1-.2-.2v-7.3zm2.7 6.1c1.4 0 2.5-1.1 2.5-2.5s-1-2.5-2.5-2.5h-1.3v5h1.3zm10-6.4c2.2 0 4 1.8 4 4s-1.8 3.9-4 3.9-3.9-1.7-3.9-3.9c-.1-2.3 1.7-4 3.9-4zm0 6.4c1.4 0 2.5-1.1 2.5-2.5s-1.1-2.5-2.5-2.5-2.5 1.2-2.5 2.5 1.1 2.5 2.5 2.5zm5.7-6.1c0-.2 0-.3.2-.3h1c.1 0 .2.1.2.2l1.1 4.4 1.7-4.5c0-.1.1-.1.2-.1h.2c.1 0 .2.1.2.1l1.8 4.5 1.1-4.4c0-.1.1-.2.2-.2h1c.2 0 .2.1.2.3l-2.1 7.4c0 .1-.1.2-.2.2h-.2c-.1 0-.2-.1-.2-.1l-2-5h.2l-1.9 5c0 .1-.1.1-.2.1h-.2c-.1 0-.2-.1-.2-.2l-2.1-7.4zm11.7-.2c0-.1.1-.2.2-.2h.3l4.6 4.9v-4.5c0-.1.1-.2.2-.2h1c.1 0 .2.1.2.2V27c0 .1-.1.2-.2.2h-.3l-4.6-5v4.7c0 .1-.1.2-.2.2h-1c-.1 0-.2-.1-.2-.2v-7.5zm9.6.2c0-.1.1-.2.2-.2h1c.1 0 .2.1.2.2v6.2h2.8c.1 0 .2.1.2.2v.9c0 .1-.1.2-.2.2h-4c-.1 0-.2-.1-.2-.2v-7.3zm9.9-.3c2.2 0 4 1.8 4 4s-1.8 3.9-4 3.9-3.9-1.7-3.9-3.9c0-2.3 1.7-4 3.9-4zm0 6.4c1.4 0 2.5-1.1 2.5-2.5s-1.1-2.5-2.5-2.5-2.5 1.2-2.5 2.5 1.1 2.5 2.5 2.5zm5.5 1.1l3.4-7.4c0-.1.1-.1.2-.1h.1c.1 0 .2.1.2.1l3.4 7.4c.1.1 0 .3-.2.3h-1c-.2 0-.2-.1-.3-.2l-.5-1.2h-3.3l-.5 1.2c0 .1-.1.2-.3.2h-1c-.2 0-.3-.2-.2-.3zm4.7-2.4l-1.1-2.4-1.1 2.4h2.2zm4.7-4.8c0-.1.1-.2.2-.2h2.6c2.1 0 3.9 1.7 3.9 3.8 0 2.1-1.7 3.9-3.9 3.9h-2.6c-.1 0-.2-.1-.2-.2v-7.3zm2.6 6.1c1.4 0 2.5-1.1 2.5-2.5s-1-2.5-2.5-2.5h-1.3v5h1.3zm10.1-6.1c0-.1.1-.2.2-.2h1c.1 0 .2.1.2.2v7.3c0 .1-.1.2-.2.2h-1c-.1 0-.2-.1-.2-.2v-7.3zm4.6-.2c0-.1.1-.2.2-.2h.3l4.6 4.9v-4.5c0-.1.1-.2.2-.2h1c.1 0 .2.1.2.2V27c0 .1-.1.2-.2.2h-.3l-4.6-5v4.7c0 .1-.1.2-.2.2h-1c-.1 0-.2-.1-.2-.2v-7.5zm13.1.2c0-.1.1-.2.2-.2h2.6c2.1 0 3.9 1.7 3.9 3.8 0 2.1-1.7 3.9-3.9 3.9h-2.6c-.1 0-.2-.1-.2-.2v-7.3zm2.7 6.1c1.4 0 2.5-1.1 2.5-2.5s-1-2.5-2.5-2.5h-1.3v5h1.3zm6.5-6.1c0-.1.1-.2.2-.2h4.5c.1 0 .2.1.2.2v.9c0 .1-.1.2-.2.2h-3.3v1.8h2.7c.1 0 .2.1.2.2v.9c0 .1-.1.2-.2.2h-2.7v1.9h3.3c.1 0 .2.1.2.2v.9c0 .1-.1.2-.2.2h-4.5c-.1 0-.2-.1-.2-.2v-7.2z" id="Download_in_de"/><path class="st1" d="M88 43.2c-.9 2.1-1.4 3.3-2.8 5.1-1.9 2.8-4.2 6-7.4 6-2.8 0-3.5-1.9-7.2-1.9s-4.4 1.9-7.2 1.9c-3 0-5.3-3-7.2-5.8-4.9-7.4-5.3-16.3-2.3-20.9 2.1-3.3 5.6-5.3 8.8-5.3s5.3 1.9 7.9 1.9c2.6 0 4.2-1.9 7.9-1.9 2.8 0 5.8 1.6 8.1 4.2-6.9 4-5.8 14 1.4 16.7zM76 19.3c1.4-1.9 2.3-4.2 2.1-6.7-2.3.2-4.9 1.6-6.5 3.5-1.4 1.6-2.6 4.2-2.1 6.7 2.3 0 4.8-1.6 6.5-3.5z"/></svg>