<svg xmlns="http://www.w3.org/2000/svg" viewBox="0 0 48 48"><path fill="#fff" d="M26.41 17.674c0-1.224.296-1.808 2.195-1.808h2.323v-4.519h-3.917c-4.874 0-6.426 2.164-6.426 5.999v3.038h-3.314v4.619h3.314V38.66h5.824V25.004h4.038l.541-4.619H26.41v-2.711zM24 0C10.745 0 0 10.745 0 24s10.745 24 24 24 24-10.745 24-24S37.255 0 24 0zm15.905 39.905a22.35 22.35 0 0 1-15.906 6.588 22.35 22.35 0 0 1-15.906-6.588A22.35 22.35 0 0 1 1.506 24c0-6.008 2.34-11.657 6.588-15.905A22.348 22.348 0 0 1 24 1.506a22.35 22.35 0 0 1 15.906 6.588 22.349 22.349 0 0 1 6.588 15.905c0 6.009-2.34 11.658-6.589 15.906z"/></svg>