<svg xmlns="http://www.w3.org/2000/svg" viewBox="0 0 48 48"><path fill="#fff" d="M30.309 19.779c-2.613 0-3.799 1.473-4.502 2.496v-2.091h-4.921v15.264h4.921v-8.7c0-.449.061-.889.196-1.212.359-.898 1.212-1.823 2.577-1.823 1.787 0 2.55 1.374 2.55 3.385v8.35h4.92v-8.925c0-4.607-2.499-6.744-5.741-6.744zm-14.625-7.273c-1.616 0-2.667 1.135-2.667 2.634 0 1.473 1.024 2.634 2.604 2.634h.036c1.643 0 2.667-1.161 2.667-2.634-.036-1.509-1.024-2.634-2.64-2.634zm-2.63 22.942h4.92V20.184h-4.92v15.264zM24 0C10.745 0 0 10.745 0 24s10.745 24 24 24 24-10.745 24-24S37.255 0 24 0zm15.906 39.905A22.35 22.35 0 0 1 24 46.493a22.35 22.35 0 0 1-15.906-6.588A22.347 22.347 0 0 1 1.506 24c0-6.008 2.34-11.657 6.588-15.905A22.348 22.348 0 0 1 24 1.506a22.35 22.35 0 0 1 15.906 6.588 22.349 22.349 0 0 1 6.588 15.905c0 6.009-2.34 11.658-6.588 15.906z"/></svg>