<svg id="Layer_1" xmlns="http://www.w3.org/2000/svg" viewBox="0 0 140 30"><style>.st0{fill:#6c6c73}</style><path class="st0" d="M10.4 2.4C5.8 2.4 7-2 4.3 1.1 2.3 3.4 1 6.1 1 9.3c0 .2 1.1 6.1 9.4 8.5.2 0 9.3-1.2 9.3-8.5 0-3.3-1.3-5.9-3.3-8.3-2.7-3-1.5 1.4-6 1.4zm-.1 12.2c-5.1 0-7.2-2.9-7.2-5.3S5 4.9 7.4 4.9c1.1 0 2.2.5 3 1.2.8-.8 1.8-1.2 3-1.2 2.4 0 4.3 2 4.3 4.4-.1 2.5-2.3 5.3-7.4 5.3zM7.4 8.7c-.5 0-.9.4-.9.9s.4.9.9.9.9-.4.9-.9c.1-.5-.4-.9-.9-.9zm5.6 0c-.5 0-.9.4-.9.9s.4.9.9.9.9-.4.9-.9-.4-.9-.9-.9zm-.7 10.5C2.7 17.2 1 11 1 11c0 10.7 8.4 18 18.7 18v-2.5c0-3.1-.3-5.8-7.4-7.3zm-.8-.9c.3.1.5.1.8.2 5.7 1.1 6.9 3.1 7.4 4.6V12.2c-1 4.3-7.3 6-8.2 6.1zM37 8.8c-2 0-3.7.7-5 2.1-1.4 1.4-2 3.1-2 5s.7 3.6 2 5 2.9 2.1 4.8 2.1h.2c2 0 3.7-.8 5-2.3v-1.6c-.6.9-1.4 1.7-2.3 2.2-.9.5-1.9.8-2.9.8-1.6 0-3-.6-4.2-1.9-1.2-1.2-1.8-2.7-1.8-4.4 0-1.7.6-3.2 1.8-4.4 1.2-1.2 2.6-1.9 4.2-1.9 1 0 2 .3 2.9.8.9.5 1.7 1.3 2.3 2.2V11c-1.3-1.5-3-2.2-5-2.2zm8.5 9V0h-.9v17.8c0 1.5.5 2.7 1.5 3.7s2.1 1.4 3.5 1.4V22c-1.1 0-2.1-.4-2.9-1.2-.8-.8-1.2-1.8-1.2-3zm11.7-9.1c-2 0-3.7.7-5 2.1-1.4 1.4-2 3-2 5 0 1.9.7 3.6 2.1 5 1.4 1.4 3 2.2 4.8 2.2h.3c2 0 3.6-.8 5-2.4v-1.5c-.6.9-1.4 1.7-2.3 2.2-.9.6-2 .8-3.1.8-1.2 0-2.4-.5-3.6-1.6l9.2-9.3c-1.7-1.6-3.4-2.5-5.4-2.5zm-4.6 11.2c-1-1.2-1.5-2.6-1.5-4.2s.6-3 1.8-4.3c1.2-1.2 2.6-1.9 4.1-1.9s2.9.5 4.1 1.6l-8.5 8.8zm18.1 1L65.1 9h-1l6.5 14L77 9h-.8l-5.5 11.9zM86 8.7c-2 0-3.7.7-5 2.1-1.4 1.4-2 3-2 5 0 1.9.7 3.6 2.1 5 1.4 1.4 3 2.2 4.8 2.2h.3c2 0 3.6-.8 5-2.4v-1.5c-.6.9-1.4 1.7-2.3 2.2-.9.6-2 .8-3.1.8-1.2 0-2.4-.5-3.6-1.6l9.2-9.3C89.7 9.6 88 8.7 86 8.7zm-4.6 11.2c-1-1.2-1.5-2.6-1.5-4.2s.6-3 1.8-4.3c1.2-1.2 2.6-1.9 4.1-1.9s2.9.5 4.1 1.6l-8.5 8.8zM96.5 9.4c-.7.4-1.3 1-1.6 1.7V9H94v13.6h.9v-9c0-1.1.4-2 1.2-2.8.8-.8 1.7-1.2 2.7-1.2 1 0 2 .4 2.8 1.3V9.7c-.8-.6-1.7-1-2.6-1-.9 0-1.8.2-2.5.7zm19.8 3c-.5-1.1-1.3-2-2.4-2.7-1.1-.7-2.3-1-3.5-1-1.9 0-3.5.7-4.9 2.1-1.4 1.4-2 3.1-2 5s.7 3.6 2 5c1.4 1.4 3 2.1 4.9 2.1 1.2 0 2.4-.3 3.5-1s2-1.5 2.5-2.7v2c0 2.1-.5 3.7-1.6 4.9-1.1 1.2-2.5 1.8-4.2 1.8-1.1 0-2.2-.3-3.3-1-1.1-.6-1.9-1.4-2.4-2.4V26c.6.8 1.4 1.5 2.4 2s2.1.8 3.2.8c2 0 3.7-.7 4.9-2 1.2-1.3 1.9-3.2 1.9-5.5V9h-.9v3.4zm-1.8 7.9c-1.2 1.2-2.6 1.9-4.2 1.9s-3.1-.6-4.3-1.9c-1.2-1.2-1.8-2.7-1.8-4.4 0-1.7.6-3.2 1.8-4.4 1.2-1.2 2.6-1.9 4.3-1.9 1.6 0 3 .6 4.2 1.9 1.2 1.2 1.7 2.7 1.7 4.4.1 1.7-.5 3.1-1.7 4.4zm6.6 2.3h.9V9.1h-.9v13.5zm.4-18.5c-.6 0-.8.3-.8.8s.3.8.8.8c.6 0 .8-.3.8-.8.1-.5-.2-.8-.8-.8zM138.1 9v3.4c-.5-1.1-1.3-2-2.4-2.7-1.1-.7-2.3-1-3.5-1-1.9 0-3.5.7-4.9 2.1-1.4 1.4-2 3.1-2 5s.7 3.6 2 5c1.4 1.4 3 2.1 4.9 2.1 1.2 0 2.4-.3 3.5-1s2-1.5 2.5-2.7v2c0 2.1-.5 3.7-1.6 4.9-1.1 1.2-2.5 1.8-4.2 1.8-1.1 0-2.2-.3-3.3-1-1.1-.6-1.9-1.4-2.4-2.4V26c.6.8 1.4 1.5 2.4 2s2.1.8 3.2.8c2 0 3.7-.7 4.9-2 1.2-1.3 1.9-3.2 1.9-5.5V9h-1zm-1.8 11.3c-1.2 1.2-2.6 1.9-4.2 1.9s-3.1-.6-4.3-1.9c-1.2-1.2-1.8-2.7-1.8-4.4 0-1.7.6-3.2 1.8-4.4 1.2-1.2 2.6-1.9 4.3-1.9 1.6 0 3 .6 4.2 1.9 1.2 1.2 1.7 2.7 1.7 4.4.1 1.7-.5 3.1-1.7 4.4z"/>&amp;gt;&amp;gt;&amp;gt;&amp;gt;&amp;gt;&amp;gt;&amp;gt; master</svg>