<svg xmlns="http://www.w3.org/2000/svg" xmlns:xlink="http://www.w3.org/1999/xlink" viewBox="0 0 591.689 120.237"><defs><path id="a" d="M0 0h591.689v120.237H0z"/></defs><clipPath id="b"><use xlink:href="#a" overflow="visible"/></clipPath><g clip-path="url(#b)"><defs><path id="c" d="M0 0h591.689v120.237H0z"/></defs><clipPath id="d"><use xlink:href="#c" overflow="visible"/></clipPath><path clip-path="url(#d)" fill="#3CBE9B" d="M65.909 4.378c-11.491-12.483-6.333 5.697-25.797 5.697S25.806-8.105 14.313 4.378C5.375 14.087.007 25.135.007 38.706c0 0 .016.022.016.033.177.953 4.898 25.403 40.11 35.338.656-.061 40.074-4.772 40.074-35.371h.01c-.001-13.571-5.371-24.619-14.308-34.328M40.083 60.691c-21.788 0-31.057-11.843-31.057-21.998s8.233-18.388 18.388-18.388a18.32 18.32 0 0 1 12.669 5.069 18.32 18.32 0 0 1 12.669-5.069c10.155 0 18.388 8.233 18.388 18.388s-9.269 21.998-31.057 21.998"/><path clip-path="url(#d)" fill="#3CBE9B" d="M23.687 40.054a3.925 3.925 0 1 1 7.85 0 3.925 3.925 0 0 1-7.85 0m23.867 0a3.925 3.925 0 1 1 7.85 0 3.925 3.925 0 0 1-7.85 0"/><g opacity=".8" clip-path="url(#d)"><defs><path id="e" d="M0 45.805h80.185v74.432H0z"/></defs><clipPath id="f"><use xlink:href="#e" overflow="visible"/></clipPath><path clip-path="url(#f)" fill="#3CBE9B" d="M48.654 79.77C79 86.019 80.185 96.959 80.185 109.861c0 6.684-.002 10.376-.002 10.376C35.899 120.237 0 90.088 0 45.804c0 0 7.138 25.417 48.654 33.966"/></g><g opacity=".4" clip-path="url(#d)"><defs><path id="g" d="M45.127 50.391h35.064V95.78H45.127z"/></defs><clipPath id="h"><use xlink:href="#g" overflow="visible"/></clipPath><path clip-path="url(#h)" fill="#3CBE9B" d="M45.127 75.768c1.471.35 1.957.434 3.527.738 24.471 4.741 29.445 12.825 31.531 19.275l.006-45.389c-4.424 17.954-31.342 25.265-35.064 25.376"/></g><path clip-path="url(#d)" fill="#3CBE9B" d="M154.485 95.366h-1.125c-8 0-14.874-2.957-20.624-8.873-5.749-5.916-8.623-12.854-8.623-20.811 0-7.956 2.916-14.83 8.749-20.623 5.832-5.791 12.998-8.686 21.498-8.686 8.499 0 15.749 3.209 21.748 9.624v6.374c-2.584-3.832-5.855-6.875-9.812-9.124-3.959-2.25-8.104-3.375-12.437-3.375-6.916 0-12.935 2.563-18.06 7.688-5.125 5.123-7.686 11.229-7.686 18.31 0 7.083 2.561 13.186 7.686 18.311 5.125 5.124 11.144 7.686 18.06 7.686 4.333 0 8.478-1.124 12.437-3.375 3.957-2.25 7.228-5.332 9.812-9.248v6.498c-5.833 6.418-13.042 9.624-21.623 9.624m53.62-3.999v3.501c-5.917 0-10.957-1.979-15.123-5.939-4.168-3.955-6.25-9.017-6.25-15.184V.001h4v73.744c0 5.082 1.688 9.291 5.062 12.623 3.374 3.333 7.478 4.999 12.311 4.999m33.122 3.874h-1.125c-7.917 0-14.811-2.978-20.685-8.937-5.875-5.955-8.812-12.892-8.812-20.811 0-7.915 2.916-14.767 8.749-20.56 5.832-5.79 13.04-8.687 21.623-8.687 8.582 0 15.956 3.418 22.123 10.25l-39.246 38.745c5.416 4.335 10.623 6.5 15.624 6.5 4.999 0 9.477-1.145 13.435-3.437 3.957-2.29 7.228-5.353 9.812-9.186v6.374c-5.918 6.5-13.083 9.749-21.498 9.749m-1.312-55.494c-6.624 0-12.499 2.562-17.624 7.686-5.124 5.125-7.686 11.021-7.686 17.685 0 6.668 2.206 12.499 6.624 17.499l36.372-36.121c-5.168-4.499-11.062-6.749-17.686-6.749m82.428-2.251h3.624l-27.621 57.87-27.748-57.87h4.374l23.748 49.371zm42.371 57.745h-1.125c-7.917 0-14.811-2.978-20.685-8.937-5.875-5.955-8.812-12.892-8.812-20.811 0-7.915 2.916-14.767 8.749-20.56 5.832-5.79 13.04-8.687 21.623-8.687 8.581 0 15.956 3.418 22.123 10.25l-39.246 38.745c5.416 4.335 10.623 6.5 15.624 6.5 4.999 0 9.477-1.145 13.435-3.437 3.957-2.29 7.228-5.353 9.812-9.186v6.374c-5.918 6.5-13.083 9.749-21.498 9.749m-1.312-55.494c-6.624 0-12.499 2.562-17.624 7.686-5.124 5.125-7.686 11.021-7.686 17.685 0 6.668 2.206 12.499 6.624 17.499l36.372-36.121c-5.168-4.499-11.062-6.749-17.686-6.749m55.806-.125c-4.418 0-8.312 1.668-11.686 4.999-3.375 3.333-5.062 7.209-5.062 11.625v37.496h-4V37.496h4v8.375c1.499-2.831 3.831-5.166 6.999-7 3.165-1.831 6.706-2.75 10.624-2.75 3.916 0 7.665 1.334 11.249 4.001v4.999c-3.668-3.665-7.709-5.499-12.124-5.499m74.993-2.126h4v50.995c0 9.666-2.668 17.29-8 22.874-5.333 5.581-12.332 8.373-20.998 8.373-4.75 0-9.374-1.083-13.874-3.25-4.499-2.166-7.999-4.999-10.498-8.498v-5.749c2.165 3.999 5.562 7.331 10.186 9.999 4.624 2.665 9.352 3.999 14.186 3.999 7.332 0 13.331-2.48 17.998-7.437 4.666-4.959 7-11.73 7-20.311v-8.373c-2.25 4.582-5.793 8.249-10.624 10.999-4.834 2.75-9.833 4.125-14.999 4.125-8.167 0-15.166-2.896-20.998-8.687-5.833-5.791-8.749-12.728-8.749-20.811 0-8.081 2.916-15.018 8.749-20.811 5.832-5.789 12.831-8.687 20.998-8.687 5.415 0 10.477 1.357 15.186 4.062 4.707 2.709 8.187 6.437 10.437 11.187V37.496zm-51.37 28.248c0 7.083 2.562 13.186 7.686 18.311 5.125 5.124 11.206 7.686 18.249 7.686 7.04 0 13.061-2.562 18.06-7.686 5-5.125 7.499-11.228 7.499-18.311 0-7.081-2.499-13.186-7.499-18.311-4.999-5.124-11.02-7.686-18.06-7.686-7.043 0-13.124 2.562-18.249 7.686-5.124 5.125-7.686 11.23-7.686 18.311m73.992-41.871c-2.418 0-3.625-1.126-3.625-3.375 0-2.25 1.207-3.374 3.625-3.374 2.416 0 3.625 1.124 3.625 3.374 0 2.249-1.209 3.375-3.625 3.375m1.999 69.869h-3.999v-56.12h3.999v56.12zm68.868-56.246h3.999v50.995c0 9.666-2.667 17.29-7.998 22.874-5.334 5.581-12.333 8.373-21 8.373-4.748 0-9.373-1.083-13.872-3.25-4.501-2.166-8-4.999-10.5-8.498v-5.749c2.166 3.999 5.562 7.331 10.187 9.999 4.624 2.665 9.352 3.999 14.185 3.999 7.332 0 13.332-2.48 17.999-7.437 4.665-4.959 7-11.73 7-20.311v-8.373c-2.25 4.582-5.793 8.249-10.624 10.999-4.834 2.75-9.833 4.125-14.998 4.125-8.168 0-15.168-2.896-21-8.687-5.833-5.791-8.749-12.728-8.749-20.811 0-8.081 2.916-15.018 8.749-20.811 5.832-5.789 12.832-8.687 21-8.687 5.414 0 10.476 1.357 15.186 4.062 4.706 2.709 8.186 6.437 10.436 11.187V37.496zm-51.37 28.248c0 7.083 2.562 13.186 7.686 18.311 5.125 5.124 11.206 7.686 18.248 7.686 7.041 0 13.062-2.562 18.061-7.686 5-5.125 7.5-11.228 7.5-18.311 0-7.081-2.5-13.186-7.5-18.311-4.999-5.124-11.02-7.686-18.061-7.686-7.042 0-13.123 2.562-18.248 7.686-5.124 5.125-7.686 11.23-7.686 18.311"/></g></svg>