<svg id="Google_Play_1_" xmlns="http://www.w3.org/2000/svg" viewBox="0 0 281 71"><style>.st0{fill:#3cbe9b}.st1{fill:#fff}</style><path class="st0" d="M72 0C32.2 0 0 31.8 0 71h209c39.8 0 72-31.8 72-71H72z" id="Rectangle_10_copy_4"/><path class="st1" d="M100.5 35.2c2.1 0 3.7.7 5.1 2 .2.2.2.4 0 .6l-.6.6c-.2.2-.3.2-.5 0-1.1-.9-2.6-1.6-4-1.6-3.3 0-5.8 2.8-5.8 6s2.5 6.1 5.8 6.1c2.3 0 3.8-.9 3.8-.9v-2.9h-2.4c-.2 0-.4-.2-.4-.4v-.8c0-.2.2-.4.4-.4h3.6c.2 0 .4.2.4.4v4.8c0 .1-.1.3-.2.3 0 0-2.1 1.4-5.2 1.4-4.2 0-7.6-3.3-7.6-7.5s3.4-7.7 7.6-7.7zm15.5 0c4.2 0 7.6 3.4 7.6 7.6s-3.4 7.5-7.6 7.5-7.5-3.3-7.5-7.5 3.3-7.6 7.5-7.6zm0 13.6c3.3 0 6.1-2.7 6.1-6.1 0-3.3-2.8-6.1-6.1-6.1s-6.1 2.8-6.1 6.1c0 3.4 2.8 6.1 6.1 6.1zm17.5-13.6c4.2 0 7.6 3.4 7.6 7.6s-3.4 7.5-7.6 7.5-7.5-3.3-7.5-7.5 3.3-7.6 7.5-7.6zm0 13.6c3.3 0 6.1-2.7 6.1-6.1 0-3.3-2.8-6.1-6.1-6.1s-6.1 2.8-6.1 6.1c0 3.4 2.7 6.1 6.1 6.1zm17.4-13.6c2.1 0 3.7.7 5.1 2 .2.2.2.4 0 .6l-.6.6c-.2.2-.3.2-.5 0-1.1-.9-2.6-1.6-4-1.6-3.3 0-5.8 2.8-5.8 6s2.5 6.1 5.8 6.1c2.3 0 3.8-.9 3.8-.9v-2.9h-2.4c-.2 0-.4-.2-.4-.4v-.8c0-.2.2-.4.4-.4h3.6c.2 0 .4.2.4.4v4.8c0 .1-.1.3-.2.3 0 0-2.1 1.4-5.2 1.4-4.2 0-7.6-3.3-7.6-7.5s3.5-7.7 7.6-7.7zm9.1.6c0-.2.2-.4.4-.4h.8c.2 0 .4.2.4.4v12.9h6c.2 0 .4.2.4.4v.6c0 .2-.2.4-.4.4h-7.3c-.2 0-.4-.2-.4-.4l.1-13.9zm10.5 0c0-.2.2-.4.4-.4h8.3c.2 0 .4.2.4.4v.6c0 .2-.2.4-.4.4h-7.1v5.1h6c.2 0 .4.2.4.4v.6c0 .2-.2.4-.4.4h-6v5.4h7.1c.2 0 .4.2.4.4v.6c0 .2-.2.4-.4.4h-8.3c-.2 0-.4-.2-.4-.4V35.8zm17.5 0c0-.2.2-.4.4-.4h4.6c2.6 0 4.7 2.1 4.7 4.6 0 2.6-2.1 4.7-4.7 4.7h-3.5v4.9c0 .2-.2.4-.4.4h-.8c-.2 0-.4-.2-.4-.4V35.8zm5 7.4c1.7 0 3.2-1.4 3.2-3.2 0-1.7-1.5-3-3.2-3h-3.3v6.2h3.3zm7.8-7.4c0-.2.2-.4.4-.4h.8c.2 0 .4.2.4.4v12.9h6c.2 0 .4.2.4.4v.6c0 .2-.2.4-.4.4h-7.3c-.2 0-.4-.2-.4-.4l.1-13.9zm9.1 13.7l6.4-14.1c.1-.1.2-.2.4-.2h.2c.2 0 .3.1.4.2l6.3 14.1c.1.3 0 .5-.4.5h-.8c-.2 0-.3-.1-.4-.2l-1.6-3.5H213l-1.5 3.5c0 .1-.2.2-.4.2h-.8c-.3.1-.5-.2-.4-.5zm10-4.4c-1-2.3-2-4.6-3.1-6.9h-.2l-3.1 6.9h6.4zM228 43l-5.1-7c-.2-.3 0-.6.3-.6h1c.1 0 .3.1.3.2l4.2 5.9 4.2-5.9c.1-.1.2-.2.3-.2h1c.3 0 .5.3.3.6l-5.1 7v6.7c0 .2-.2.4-.4.4h-.8c-.2 0-.4-.2-.4-.4V43z" id="Google_Play_2_"/><path class="st1" d="M93.3 20.6c-.1-.1 0-.3.2-.3h1.1c.1 0 .2.1.2.1l2.1 4.7h.1l2.1-4.7c0-.1.1-.1.2-.1h1.1c.2 0 .3.1.2.3L97.2 28c0 .1-.1.1-.2.1h-.1c-.1 0-.2-.1-.2-.1l-3.4-7.4zm9.4 0c0-.1.1-.2.2-.2h4.5c.1 0 .2.1.2.2v.9c0 .1-.1.2-.2.2h-3.3v1.8h2.7c.1 0 .2.1.2.2v.9c0 .1-.1.2-.2.2h-2.7v1.9h3.3c.1 0 .2.1.2.2v.9c0 .1-.1.2-.2.2h-4.5c-.1 0-.2-.1-.2-.2v-7.2zm7.6 0c0-.1.1-.2.2-.2h3.1c1.3 0 2.4 1.1 2.4 2.4 0 1-.7 1.8-1.6 2.2l1.5 2.8c.1.1 0 .3-.2.3h-1.2c-.1 0-.2-.1-.2-.1l-1.5-2.9h-1.2v2.8c0 .1-.1.2-.2.2h-1c-.1 0-.2-.1-.2-.2l.1-7.3zm3.2 3.3c.6 0 1.1-.5 1.1-1.1 0-.6-.5-1.1-1.1-1.1h-1.8v2.2h1.8zm5.2-3.3c0-.1.1-.3.3-.3h1c.1 0 .3.1.3.3v3l2.8-3.1c0-.1.1-.1.2-.1h1.1c.2 0 .3.2.2.4l-2.9 3.2 3.1 3.7c.1.1 0 .4-.2.4h-1.2c-.1 0-.2 0-.2-.1l-2.9-3.5v3.4c0 .1-.1.3-.3.3h-1c-.2 0-.3-.1-.3-.3v-7.3zm8.3 0c0-.1.1-.2.2-.2h3.1c1.3 0 2.4 1.1 2.4 2.4 0 1-.7 1.8-1.6 2.2l1.5 2.8c.1.1 0 .3-.2.3h-1.2c-.1 0-.2-.1-.2-.1l-1.5-2.9h-1.2v2.8c0 .1-.1.2-.2.2h-1c-.1 0-.2-.1-.2-.2.1 0 .1-7.3.1-7.3zm3.2 3.3c.6 0 1.1-.5 1.1-1.1 0-.6-.5-1.1-1.1-1.1h-1.8v2.2h1.8zm5.2-3.3c0-.1.1-.2.2-.2h1c.1 0 .2.1.2.2v7.3c0 .1-.1.2-.2.2h-1c-.1 0-.2-.1-.2-.2v-7.3zm3.4 6.5l.6-.6c.1-.1.2-.1.3 0 .1.2.4.4.7.4.4 0 .9-.4.9-1.1v-5.2c0-.1.1-.2.2-.2h1c.1 0 .2.1.2.2v5.2c0 1.5-1 2.4-2.3 2.4-1 0-1.5-.6-1.7-.8 0-.1 0-.2.1-.3zm10.2-6.8c1 0 1.9.4 2.7 1 .1.1.1.2 0 .3l-.7.7c-.1.1-.2.1-.3 0-.5-.4-1.1-.6-1.7-.6-1.4 0-2.5 1.2-2.5 2.6 0 1.4 1.1 2.5 2.5 2.5.6 0 1.1-.2 1.3-.3v-.9h-.9c-.1 0-.2-.1-.2-.2v-.9c0-.1.1-.2.2-.2h2.1c.1 0 .2.1.2.2v2.8c0 .1 0 .1-.1.2 0 0-1.1.7-2.7.7-2.2 0-3.9-1.7-3.9-3.9.1-2.3 1.8-4 4-4zm8.1.3c-.1-.1 0-.3.2-.3h1.1c.1 0 .2.1.2.1l2.1 4.7h.1l2.1-4.7c0-.1.1-.1.2-.1h1.1c.2 0 .3.1.2.3L161 28c0 .1-.1.1-.2.1h-.1c-.1 0-.2-.1-.2-.1l-3.4-7.4zm9.4 0c0-.1.1-.2.2-.2h1c.1 0 .2.1.2.2v7.3c0 .1-.1.2-.2.2h-1c-.1 0-.2-.1-.2-.2v-7.3zm3.5 7.2l3.4-7.4c0-.1.1-.1.2-.1h.1c.1 0 .2.1.2.1l3.4 7.4c.1.1 0 .3-.2.3h-1c-.2 0-.2-.1-.3-.2l-.5-1.2H172l-.5 1.2c0 .1-.1.2-.3.2h-1c-.2 0-.3-.2-.2-.3zm4.8-2.4l-1.1-2.4-1.1 2.4h2.2z" id="Verkrijg_via"/><path class="st1" d="M50.7 19.3c-.6.6-.7 1.6-.7 1.6V51s.1 1 .7 1.6L67.3 36 50.7 19.3zM80 34.5s-2.6-1.4-6.1-3.5l-5 5 4.9 4.9c3.6-2 6.1-3.5 6.1-3.5s1-.6 1-1.5c.1-.7-.9-1.4-.9-1.4zm-7.2-4c-7.2-4.1-17.5-9.9-19.5-11-.5-.3-1-.5-1.3-.5l16.2 16.2 4.6-4.7zM52 53c.4-.1.8-.2 1.3-.5 2-1.1 12.3-6.9 19.5-11l-4.7-4.7L52 53z" id="big"/></svg>