<svg xmlns="http://www.w3.org/2000/svg" viewBox="0 0 281 71"><path fill-rule="evenodd" clip-rule="evenodd" fill="#FFF" d="M72 0C32.235 0 0 31.787 0 71h209c39.764 0 72-31.788 72-71H72z"/><path d="M100.482 35.156c2.121 0 3.653.735 5.081 1.953.168.168.189.42.021.588-.189.188-.42.398-.588.588-.189.209-.315.188-.546-.021-1.071-.945-2.583-1.638-3.989-1.638-3.317 0-5.837 2.771-5.837 6.026 0 3.232 2.52 6.067 5.837 6.067 2.31 0 3.779-.882 3.779-.882v-2.939h-2.415c-.231 0-.399-.168-.399-.378v-.776c0-.231.168-.399.399-.399h3.632c.21 0 .378.188.378.399v4.808a.523.523 0 0 1-.168.336s-2.142 1.386-5.186 1.386c-4.199 0-7.58-3.338-7.58-7.537s3.382-7.581 7.581-7.581zm15.535 0c4.199 0 7.559 3.381 7.559 7.58s-3.359 7.537-7.559 7.537-7.538-3.338-7.538-7.537 3.339-7.58 7.538-7.58zm0 13.648c3.338 0 6.089-2.729 6.089-6.067 0-3.339-2.75-6.11-6.089-6.11s-6.068 2.771-6.068 6.11c0 3.337 2.73 6.067 6.068 6.067zm17.445-13.648c4.199 0 7.559 3.381 7.559 7.58s-3.36 7.537-7.559 7.537-7.538-3.338-7.538-7.537 3.339-7.58 7.538-7.58zm0 13.648c3.338 0 6.089-2.729 6.089-6.067 0-3.339-2.75-6.11-6.089-6.11s-6.068 2.771-6.068 6.11c.001 3.337 2.73 6.067 6.068 6.067zm17.488-13.648c2.12 0 3.653.735 5.081 1.953.168.168.189.42.021.588-.189.188-.42.398-.588.588-.189.209-.315.188-.547-.021-1.07-.945-2.582-1.638-3.988-1.638-3.318 0-5.838 2.771-5.838 6.026 0 3.232 2.52 6.067 5.838 6.067 2.309 0 3.779-.882 3.779-.882v-2.939h-2.415c-.231 0-.399-.168-.399-.378v-.776c0-.231.168-.399.399-.399h3.632c.211 0 .379.188.379.399v4.808a.523.523 0 0 1-.168.336s-2.143 1.386-5.187 1.386c-4.199 0-7.579-3.338-7.579-7.537s3.381-7.581 7.58-7.581zm9.068.609c0-.21.168-.399.398-.399h.819c.21 0 .399.189.399.399v12.891h6.047c.23 0 .398.189.398.399v.608a.398.398 0 0 1-.398.399h-7.266a.398.398 0 0 1-.398-.399V35.765zm10.517 0c0-.21.168-.399.398-.399h8.273c.23 0 .398.189.398.399v.609c0 .21-.168.399-.398.399h-7.055v5.123h6.025c.21 0 .398.188.398.398v.609c0 .23-.188.398-.398.398h-6.025v5.354h7.055c.23 0 .398.189.398.399v.608a.398.398 0 0 1-.398.399h-8.273a.398.398 0 0 1-.398-.399V35.765zm17.509 0c0-.21.168-.399.399-.399h4.64c2.583 0 4.703 2.1 4.703 4.64 0 2.604-2.12 4.725-4.683 4.725h-3.464v4.934a.412.412 0 0 1-.399.399h-.797a.398.398 0 0 1-.399-.399v-13.9zm4.935 7.412a3.208 3.208 0 0 0 3.191-3.212c0-1.701-1.471-3.003-3.191-3.003h-3.339v6.215h3.339zm7.787-7.412c0-.21.168-.399.398-.399h.819c.21 0 .399.189.399.399v12.891h6.047c.23 0 .398.189.398.399v.608a.398.398 0 0 1-.398.399h-7.266a.398.398 0 0 1-.398-.399V35.765zm9.152 13.753l6.383-14.13c.063-.126.168-.231.357-.231h.209c.189 0 .295.105.357.231l6.341 14.13c.126.273-.042.546-.356.546h-.84a.386.386 0 0 1-.357-.231l-1.554-3.464h-7.454l-1.532 3.464a.386.386 0 0 1-.356.231h-.84c-.316-.001-.484-.273-.358-.546zm9.973-4.452c-1.028-2.289-2.036-4.598-3.064-6.887h-.168l-3.066 6.887h6.298zm8.125-2.078l-5.061-7.013c-.168-.273 0-.609.336-.609h.986c.147 0 .273.105.336.189l4.242 5.858 4.24-5.858c.063-.084.189-.189.336-.189h.987c.336 0 .504.336.336.609l-5.123 6.992v6.697a.412.412 0 0 1-.399.399h-.818a.398.398 0 0 1-.398-.399v-6.676zM93.308 20.648c-.066-.143.022-.286.187-.286h1.122c.099 0 .165.066.187.121l2.112 4.73h.077l2.112-4.73a.202.202 0 0 1 .187-.121h1.122c.165 0 .253.143.187.286l-3.41 7.404c-.033.066-.088.121-.187.121h-.11c-.099 0-.154-.055-.187-.121l-3.399-7.404zm9.391-.077c0-.11.088-.209.209-.209h4.478c.121 0 .209.099.209.209v.902c0 .11-.088.209-.209.209h-3.257v1.804h2.718c.11 0 .209.099.209.209v.913a.209.209 0 0 1-.209.209h-2.718v1.925h3.257c.121 0 .209.099.209.209v.902c0 .11-.088.209-.209.209h-4.478a.209.209 0 0 1-.209-.209v-7.282zm7.565 0c0-.11.088-.209.209-.209h3.146c1.32 0 2.398 1.056 2.398 2.365 0 1.012-.671 1.837-1.628 2.223l1.507 2.794c.077.143 0 .319-.187.319h-1.155a.189.189 0 0 1-.176-.099l-1.463-2.916h-1.221v2.806c0 .11-.099.209-.209.209h-1.012a.209.209 0 0 1-.209-.209v-7.283zm3.235 3.301c.583 0 1.089-.506 1.089-1.123 0-.583-.506-1.067-1.089-1.067h-1.793v2.189h1.793zm5.189-3.246a.26.26 0 0 1 .264-.264h.968c.143 0 .264.121.264.264v2.97l2.772-3.125a.263.263 0 0 1 .209-.11h1.1c.209 0 .319.231.176.396l-2.871 3.234 3.08 3.686a.241.241 0 0 1-.198.385h-1.199c-.11 0-.176-.044-.198-.077l-2.871-3.542v3.355a.268.268 0 0 1-.264.264h-.968a.26.26 0 0 1-.264-.264v-7.172zm8.269-.055c0-.11.088-.209.209-.209h3.146c1.32 0 2.398 1.056 2.398 2.365 0 1.012-.671 1.837-1.628 2.223l1.507 2.794c.077.143 0 .319-.187.319h-1.155a.189.189 0 0 1-.176-.099l-1.463-2.916h-1.221v2.806c0 .11-.099.209-.209.209h-1.012a.209.209 0 0 1-.209-.209v-7.283zm3.235 3.301c.583 0 1.089-.506 1.089-1.123 0-.583-.506-1.067-1.089-1.067h-1.793v2.189h1.793zm5.188-3.301c0-.11.099-.209.209-.209h1.023c.11 0 .209.099.209.209v7.283c0 .11-.099.209-.209.209h-1.023a.216.216 0 0 1-.209-.209v-7.283zm3.387 6.524l.572-.583c.121-.11.231-.088.33.011.143.154.363.352.726.352.429 0 .88-.352.88-1.111v-5.193c0-.11.088-.209.209-.209h1.034c.121 0 .209.099.209.209v5.193c0 1.529-1.023 2.409-2.31 2.409a2.109 2.109 0 0 1-1.672-.803.229.229 0 0 1 .022-.275zm10.25-6.843c.99 0 1.937.385 2.685 1.023.088.088.099.22.011.308l-.682.715c-.088.088-.188.088-.286 0a2.496 2.496 0 0 0-1.661-.638c-1.375 0-2.465 1.177-2.465 2.552 0 1.364 1.09 2.52 2.476 2.52.616 0 1.089-.187 1.31-.275v-.935h-.881c-.12 0-.209-.088-.209-.198v-.869c0-.121.089-.209.209-.209h2.112c.11 0 .198.099.198.209v2.816a.212.212 0 0 1-.088.176s-1.133.715-2.729.715a3.922 3.922 0 0 1-3.949-3.938 3.95 3.95 0 0 1 3.949-3.972zm8.058.396c-.066-.143.022-.286.188-.286h1.122c.099 0 .165.066.187.121l2.112 4.73h.077l2.112-4.73a.203.203 0 0 1 .188-.121h1.122c.165 0 .253.143.187.286l-3.41 7.404c-.033.066-.088.121-.188.121h-.109c-.1 0-.154-.055-.188-.121l-3.4-7.404zm9.391-.077c0-.11.1-.209.209-.209h1.023c.11 0 .209.099.209.209v7.283c0 .11-.099.209-.209.209h-1.023a.217.217 0 0 1-.209-.209v-7.283zm3.541 7.206l3.422-7.404a.197.197 0 0 1 .187-.121h.11c.109 0 .153.055.187.121l3.389 7.404c.066.143-.021.286-.187.286h-.958c-.164 0-.241-.066-.318-.22l-.539-1.188h-3.29l-.539 1.188a.331.331 0 0 1-.318.22h-.957c-.167 0-.256-.143-.189-.286zm4.753-2.343l-1.101-2.42h-.033l-1.078 2.42h2.212z" fill="#262626"/><path fill-rule="evenodd" clip-rule="evenodd" fill="#262626" d="M50.691 19.331c-.629.563-.691 1.595-.691 1.595v30.146s.062 1.032.691 1.596L67.333 36 50.691 19.331zm29.312 15.186l-6.143-3.45L68.935 36l4.925 4.932 6.143-3.45s1.014-.637.996-1.482c.018-.847-.996-1.483-.996-1.483zm-7.17-4.027c-7.21-4.051-17.538-9.855-19.528-10.983-.528-.299-.97-.453-1.343-.508l16.172 16.197 4.699-4.706zM51.962 52.999c.373-.055.815-.209 1.343-.508 1.99-1.127 12.317-6.931 19.528-10.982l-4.699-4.707-16.172 16.197z"/></svg>