<svg xmlns="http://www.w3.org/2000/svg" xmlns:xlink="http://www.w3.org/1999/xlink" viewBox="0 0 591.7 120.2"><defs><path id="a" d="M0 0h591.7v120.2H0z"/></defs><clipPath id="b"><use xlink:href="#a" overflow="visible"/></clipPath><g clip-path="url(#b)"><defs><path id="c" d="M0 0h591.7v120.2H0z"/></defs><clipPath id="d"><use xlink:href="#c" overflow="visible"/></clipPath><path clip-path="url(#d)" fill="#FFF" d="M65.9 4.4c-11.5-12.5-6.3 5.7-25.8 5.7S25.8-8.1 14.3 4.4C5.4 14.1 0 25.1 0 38.7c.2 1 4.9 25.4 40.1 35.3.7-.1 40.1-4.8 40.1-35.4 0-13.5-5.4-24.5-14.3-34.2M40.1 60.7C18.3 60.7 9 48.8 9 38.7s8.2-18.4 18.4-18.4c4.9 0 9.4 1.9 12.7 5.1 3.3-3.1 7.8-5.1 12.7-5.1 10.2 0 18.4 8.2 18.4 18.4s-9.3 22-31.1 22"/><path clip-path="url(#d)" fill="#FFF" d="M23.7 40.1c0-2.2 1.8-3.9 3.9-3.9s3.9 1.8 3.9 3.9c0 2.2-1.8 3.9-3.9 3.9s-3.9-1.8-3.9-3.9m23.9 0c0-2.2 1.8-3.9 3.9-3.9s3.9 1.8 3.9 3.9c0 2.2-1.8 3.9-3.9 3.9s-3.9-1.8-3.9-3.9"/><g opacity=".8" clip-path="url(#d)"><defs><path id="e" d="M0 45.8h80.2v74.4H0z"/></defs><clipPath id="f"><use xlink:href="#e" overflow="visible"/></clipPath><path clip-path="url(#f)" fill="#FFF" d="M48.7 79.8C79 86 80.2 97 80.2 109.9v10.4C35.9 120.2 0 90.1 0 45.8c0 0 7.1 25.4 48.7 34"/></g><g opacity=".4" clip-path="url(#d)"><defs><path id="g" d="M45.1 50.4h35.1v45.4H45.1z"/></defs><clipPath id="h"><use xlink:href="#g" overflow="visible"/></clipPath><path clip-path="url(#h)" fill="#FFF" d="M45.1 75.8c1.5.4 2 .4 3.5.7C73.1 81.2 78 89.3 80.1 95.8V50.4c-4.3 17.9-31.3 25.3-35 25.4"/></g><path clip-path="url(#d)" fill="#FFF" d="M154.5 95.4h-1.1c-8 0-14.9-3-20.6-8.9-5.7-5.9-8.6-12.9-8.6-20.8 0-8 2.9-14.8 8.7-20.6 5.8-5.8 13-8.7 21.5-8.7s15.7 3.2 21.7 9.6v6.4c-2.6-3.8-5.9-6.9-9.8-9.1-4-2.3-8.1-3.4-12.4-3.4-6.9 0-12.9 2.6-18.1 7.7-5.1 5.1-7.7 11.2-7.7 18.3 0 7.1 2.6 13.2 7.7 18.3 5.1 5.1 11.1 7.7 18.1 7.7 4.3 0 8.5-1.1 12.4-3.4 4-2.3 7.2-5.3 9.8-9.2v6.5c-5.8 6.4-13 9.6-21.6 9.6m53.6-4v3.5c-5.9 0-11-2-15.1-5.9-4.2-4-6.3-9-6.3-15.2V0h4v73.7c0 5.1 1.7 9.3 5.1 12.6 3.4 3.4 7.5 5.1 12.3 5.1m33.1 3.8h-1.1c-7.9 0-14.8-3-20.7-8.9-5.9-6-8.8-12.9-8.8-20.8s2.9-14.8 8.7-20.6c5.8-5.8 13-8.7 21.6-8.7 8.6 0 16 3.4 22.1 10.3l-39.2 38.7c5.4 4.3 10.6 6.5 15.6 6.5s9.5-1.1 13.4-3.4c4-2.3 7.2-5.4 9.8-9.2v6.4c-5.8 6.5-13 9.7-21.4 9.7m-1.3-55.5c-6.6 0-12.5 2.6-17.6 7.7-5.1 5.1-7.7 11-7.7 17.7 0 6.7 2.2 12.5 6.6 17.5l36.4-36.1c-5.2-4.5-11.1-6.8-17.7-6.8m82.4-2.2h3.7l-27.7 57.9-27.7-57.9h4.4l23.7 49.4zm42.4 57.7h-1.1c-7.9 0-14.8-3-20.7-8.9-5.9-6-8.8-12.9-8.8-20.8s2.9-14.8 8.7-20.6c5.8-5.8 13-8.7 21.6-8.7 8.6 0 16 3.4 22.1 10.3l-39.2 38.7c5.4 4.3 10.6 6.5 15.6 6.5s9.5-1.1 13.4-3.4c4-2.3 7.2-5.4 9.8-9.2v6.4c-5.8 6.5-13 9.7-21.4 9.7m-1.3-55.5c-6.6 0-12.5 2.6-17.6 7.7-5.1 5.1-7.7 11-7.7 17.7 0 6.7 2.2 12.5 6.6 17.5l36.4-36.1c-5.2-4.5-11.1-6.8-17.7-6.8m55.8-.1c-4.4 0-8.3 1.7-11.7 5-3.4 3.3-5.1 7.2-5.1 11.6v37.5h-4V37.5h4v8.4c1.5-2.8 3.8-5.2 7-7 3.2-1.8 6.7-2.8 10.6-2.8 3.9 0 7.7 1.3 11.2 4v5c-3.5-3.6-7.6-5.5-12-5.5m75-2.1h4v51c0 9.7-2.7 17.3-8 22.9-5.3 5.6-12.3 8.4-21 8.4-4.8 0-9.4-1.1-13.9-3.3-4.5-2.2-8-5-10.5-8.5v-5.7c2.2 4 5.6 7.3 10.2 10s9.4 4 14.2 4c7.3 0 13.3-2.5 18-7.4 4.7-5 7-11.7 7-20.3v-8.4c-2.3 4.6-5.8 8.2-10.6 11-4.8 2.8-9.8 4.1-15 4.1-8.2 0-15.2-2.9-21-8.7-5.8-5.8-8.7-12.7-8.7-20.8 0-8.1 2.9-15 8.7-20.8 5.8-5.8 12.8-8.7 21-8.7 5.4 0 10.5 1.4 15.2 4.1 4.7 2.7 8.2 6.4 10.4 11.2V37.5zm-51.4 28.2c0 7.1 2.6 13.2 7.7 18.3 5.1 5.1 11.2 7.7 18.2 7.7s13.1-2.6 18.1-7.7c5-5.1 7.5-11.2 7.5-18.3 0-7.1-2.5-13.2-7.5-18.3-5-5.1-11-7.7-18.1-7.7-7 0-13.1 2.6-18.2 7.7-5.1 5.2-7.7 11.3-7.7 18.3m74-41.8c-2.4 0-3.6-1.1-3.6-3.4s1.2-3.4 3.6-3.4c2.4 0 3.6 1.1 3.6 3.4 0 2.2-1.2 3.4-3.6 3.4m2 69.8h-4V37.6h4v56.1zm68.9-56.2h4v51c0 9.7-2.7 17.3-8 22.9-5.3 5.6-12.3 8.4-21 8.4-4.7 0-9.4-1.1-13.9-3.3-4.5-2.2-8-5-10.5-8.5v-5.7c2.2 4 5.6 7.3 10.2 10s9.4 4 14.2 4c7.3 0 13.3-2.5 18-7.4 4.7-5 7-11.7 7-20.3v-8.4c-2.3 4.6-5.8 8.2-10.6 11-4.8 2.8-9.8 4.1-15 4.1-8.2 0-15.2-2.9-21-8.7-5.8-5.8-8.7-12.7-8.7-20.8 0-8.1 2.9-15 8.7-20.8 5.8-5.8 12.8-8.7 21-8.7 5.4 0 10.5 1.4 15.2 4.1 4.7 2.7 8.2 6.4 10.4 11.2V37.5zm-51.4 28.2c0 7.1 2.6 13.2 7.7 18.3 5.1 5.1 11.2 7.7 18.2 7.7s13.1-2.6 18.1-7.7c5-5.1 7.5-11.2 7.5-18.3 0-7.1-2.5-13.2-7.5-18.3-5-5.1-11-7.7-18.1-7.7-7 0-13.1 2.6-18.2 7.7-5.1 5.2-7.7 11.3-7.7 18.3"/></g></svg>