<svg xmlns="http://www.w3.org/2000/svg" preserveAspectRatio="xMidYMid" width="174" height="36" viewBox="0 0 174 36"><defs><style>.cls-2{fill:#3cbe9b}</style></defs><path d="M171.647 33.344c-1.568 1.671-3.626 2.507-6.175 2.507-1.396 0-2.756-.325-4.079-.973-1.324-.649-2.353-1.497-3.088-2.545v-1.721c.637 1.197 1.635 2.195 2.995 2.994 1.361.798 2.751 1.197 4.172 1.197 2.156 0 3.921-.743 5.293-2.227 1.372-1.484 2.059-3.511 2.059-6.08V23.99c-.662 1.371-1.704 2.469-3.125 3.292s-2.891 1.235-4.41 1.235c-2.402 0-4.461-.867-6.175-2.601-1.716-1.733-2.573-3.81-2.573-6.23 0-2.419.857-4.496 2.573-6.23 1.714-1.733 3.773-2.601 6.175-2.601a8.7 8.7 0 0 1 4.466 1.216c1.384.811 2.407 1.927 3.069 3.349v-4.191H174v15.267c0 2.893-.785 5.176-2.353 6.848zm-.992-19.14c-1.47-1.534-3.241-2.301-5.311-2.301-2.071 0-3.86.767-5.367 2.301-1.507 1.535-2.26 3.362-2.26 5.482 0 2.121.753 3.948 2.26 5.482 1.507 1.534 3.296 2.301 5.367 2.301 2.07 0 3.841-.767 5.311-2.301 1.47-1.534 2.205-3.361 2.205-5.482 0-2.12-.735-3.947-2.205-5.482zm-18.671-7.053c-.712 0-1.067-.337-1.067-1.01 0-.674.355-1.01 1.067-1.01.71 0 1.065.336 1.065 1.01 0 .673-.355 1.01-1.065 1.01zm-14.004 28.7c-1.397 0-2.757-.325-4.08-.973-1.323-.649-2.353-1.497-3.088-2.545v-1.721c.637 1.197 1.636 2.195 2.996 2.994 1.36.798 2.75 1.197 4.172 1.197 2.156 0 3.92-.743 5.292-2.227 1.373-1.484 2.059-3.511 2.059-6.08V23.99c-.662 1.371-1.704 2.469-3.125 3.292s-2.891 1.235-4.41 1.235c-2.402 0-4.46-.867-6.175-2.601-1.715-1.733-2.573-3.81-2.573-6.23 0-2.419.858-4.496 2.573-6.23 1.715-1.733 3.773-2.601 6.175-2.601a8.7 8.7 0 0 1 4.466 1.216c1.384.811 2.407 1.927 3.069 3.349v-4.191h1.176v15.267c0 2.893-.785 5.176-2.353 6.848-1.568 1.671-3.626 2.507-6.174 2.507zm5.182-21.647c-1.47-1.534-3.24-2.301-5.311-2.301-2.071 0-3.859.767-5.366 2.301-1.507 1.535-2.261 3.362-2.261 5.482 0 2.121.754 3.948 2.261 5.482 1.507 1.534 3.295 2.301 5.366 2.301 2.071 0 3.841-.767 5.311-2.301 1.47-1.534 2.206-3.361 2.206-5.482 0-2.12-.736-3.947-2.206-5.482zm-19.884-2.338c-1.3 0-2.445.5-3.437 1.497-.992.997-1.489 2.158-1.489 3.48v11.225h-1.176V11.229h1.176v2.508c.441-.848 1.127-1.547 2.059-2.096.93-.548 1.972-.823 3.124-.823 1.151 0 2.254.399 3.308 1.197v1.497c-1.079-1.097-2.267-1.646-3.565-1.646zm-16.54 15.603c1.47 0 2.787-.343 3.951-1.029a8.751 8.751 0 0 0 2.885-2.75v1.908c-1.74 1.946-3.847 2.919-6.322 2.919h-.33c-2.329 0-4.356-.892-6.083-2.676-1.728-1.783-2.592-3.859-2.592-6.23 0-2.369.858-4.421 2.573-6.155 1.715-1.733 3.835-2.601 6.359-2.601 2.523 0 4.692 1.024 6.506 3.069l-11.542 11.599c1.593 1.297 3.124 1.946 4.595 1.946zm5.329-13.545c-1.519-1.347-3.252-2.021-5.201-2.021-1.948 0-3.675.767-5.182 2.301-1.507 1.535-2.261 3.3-2.261 5.295 0 1.996.649 3.742 1.948 5.238l10.696-10.813zm-32.492-2.695h1.287l6.984 14.781 6.946-14.781h1.066l-8.123 17.325-8.16-17.325zm-9.151 16.24c1.47 0 2.787-.343 3.951-1.029a8.77 8.77 0 0 0 2.885-2.75v1.908c-1.74 1.946-3.847 2.919-6.322 2.919h-.331c-2.328 0-4.355-.892-6.083-2.676-1.727-1.783-2.591-3.859-2.591-6.23 0-2.369.857-4.421 2.573-6.155 1.715-1.733 3.834-2.601 6.359-2.601 2.523 0 4.692 1.024 6.505 3.069L65.829 25.523c1.593 1.297 3.124 1.946 4.595 1.946zm5.329-13.545c-1.52-1.347-3.253-2.021-5.201-2.021-1.948 0-3.675.767-5.182 2.301-1.507 1.535-2.261 3.3-2.261 5.295 0 1.996.649 3.742 1.948 5.238l10.696-10.813zM56.75 26.627c-1.225-1.184-1.837-2.699-1.837-4.546V.004h1.176v22.077c0 1.522.496 2.782 1.489 3.779.992.998 2.199 1.497 3.62 1.497v1.047c-1.74 0-3.222-.592-4.448-1.777zm-11.32 1.927h-.331c-2.353 0-4.374-.885-6.065-2.656-1.691-1.772-2.536-3.848-2.536-6.23 0-2.382.857-4.441 2.573-6.175 1.715-1.733 3.823-2.6 6.322-2.6s4.631.961 6.396 2.881v1.908a8.587 8.587 0 0 0-2.886-2.731c-1.164-.673-2.383-1.011-3.657-1.011-2.034 0-3.804.768-5.311 2.302-1.507 1.534-2.261 3.362-2.261 5.482s.754 3.947 2.261 5.482c1.507 1.533 3.277 2.3 5.311 2.3 1.274 0 2.493-.336 3.657-1.01a8.454 8.454 0 0 0 2.886-2.769v1.945c-1.716 1.922-3.836 2.882-6.359 2.882zm-33.628-6.373C1.447 19.206.059 11.887.006 11.601l-.004-.009c0-4.063 1.579-7.371 4.207-10.277 3.38-3.737 1.863 1.706 7.586 1.706 5.724 0 4.208-5.443 7.587-1.706 2.628 2.906 4.207 6.214 4.207 10.277h-.002c0 9.16-11.592 10.57-11.785 10.589zm3.711-16.098a5.336 5.336 0 0 0-3.726 1.518 5.335 5.335 0 0 0-3.725-1.518c-2.987 0-5.408 2.464-5.408 5.505 0 3.04 2.726 6.585 9.133 6.585 6.408 0 9.133-3.545 9.133-6.585 0-3.041-2.421-5.505-5.407-5.505zm-1.529 5.912c0-.648.517-1.175 1.154-1.175.638 0 1.155.527 1.155 1.175 0 .649-.517 1.175-1.155 1.175a1.165 1.165 0 0 1-1.154-1.175zM8.12 13.17a1.164 1.164 0 0 1-1.154-1.175c0-.648.516-1.175 1.154-1.175.637 0 1.154.527 1.154 1.175 0 .649-.517 1.175-1.154 1.175zm6.188 9.738c-.462-.091-.605-.116-1.038-.221 1.095-.034 9.011-2.223 10.312-7.597l-.002 13.588c-.613-1.931-2.076-4.351-9.272-5.77zm0 .977c8.924 1.871 9.272 5.146 9.272 9.008L23.579 36C10.557 36 0 26.974 0 13.717c0 0 2.099 7.609 14.308 10.168zm138.263 4.183h-1.176V11.267h1.176v16.801z" id="path-1" class="cls-2" fill-rule="evenodd"/></svg>